TITLE ""
FILE "P1Q_t_0188-0197.mp3" MP3
  TRACK 01 AUDIO
    TITLE "P1Q_t_0188-0197_01"
    INDEX 01 00:00:00
  TRACK 02 AUDIO
    TITLE "P1Q_t_0188-0197_02"
    INDEX 01 00:01:22
  TRACK 03 AUDIO
    TITLE "P1Q_t_0188-0197_03"
    INDEX 01 00:01:43
  TRACK 04 AUDIO
    TITLE "P1Q_t_0188-0197_04"
    INDEX 01 00:04:32
  TRACK 05 AUDIO
    TITLE "P1Q_t_0188-0197_05"
    INDEX 01 00:04:53
  TRACK 06 AUDIO
    TITLE "P1Q_t_0188-0197_06"
    INDEX 01 00:09:60
  TRACK 07 AUDIO
    TITLE "P1Q_t_0188-0197_07"
    INDEX 01 00:10:32
  TRACK 08 AUDIO
    TITLE "P1Q_t_0188-0197_08"
    INDEX 01 00:11:39
  TRACK 09 AUDIO
    TITLE "P1Q_t_0188-0197_09"
    INDEX 01 00:11:59
  TRACK 10 AUDIO
    TITLE "P1Q_t_0188-0197_10"
    INDEX 01 00:14:36
  TRACK 11 AUDIO
    TITLE "P1Q_t_0188-0197_11"
    INDEX 01 00:14:55
  TRACK 12 AUDIO
    TITLE "P1Q_t_0188-0197_12"
    INDEX 01 00:20:33
  TRACK 13 AUDIO
    TITLE "P1Q_t_0188-0197_13"
    INDEX 01 00:21:05
  TRACK 14 AUDIO
    TITLE "P1Q_t_0188-0197_14"
    INDEX 01 00:22:00
  TRACK 15 AUDIO
    TITLE "P1Q_t_0188-0197_15"
    INDEX 01 00:22:26
  TRACK 16 AUDIO
    TITLE "P1Q_t_0188-0197_16"
    INDEX 01 00:26:04
  TRACK 17 AUDIO
    TITLE "P1Q_t_0188-0197_17"
    INDEX 01 00:26:23
  TRACK 18 AUDIO
    TITLE "P1Q_t_0188-0197_18"
    INDEX 01 00:30:21
  TRACK 19 AUDIO
    TITLE "P1Q_t_0188-0197_19"
    INDEX 01 00:30:68
  TRACK 20 AUDIO
    TITLE "P1Q_t_0188-0197_20"
    INDEX 01 00:32:26
  TRACK 21 AUDIO
    TITLE "P1Q_t_0188-0197_21"
    INDEX 01 00:32:48
  TRACK 22 AUDIO
    TITLE "P1Q_t_0188-0197_22"
    INDEX 01 00:35:38
  TRACK 23 AUDIO
    TITLE "P1Q_t_0188-0197_23"
    INDEX 01 00:35:58
  TRACK 24 AUDIO
    TITLE "P1Q_t_0188-0197_24"
    INDEX 01 00:39:59
  TRACK 25 AUDIO
    TITLE "P1Q_t_0188-0197_25"
    INDEX 01 00:40:31
  TRACK 26 AUDIO
    TITLE "P1Q_t_0188-0197_26"
    INDEX 01 00:41:35
  TRACK 27 AUDIO
    TITLE "P1Q_t_0188-0197_27"
    INDEX 01 00:41:56
  TRACK 28 AUDIO
    TITLE "P1Q_t_0188-0197_28"
    INDEX 01 00:43:00
  TRACK 29 AUDIO
    TITLE "P1Q_t_0188-0197_29"
    INDEX 01 00:43:20
  TRACK 30 AUDIO
    TITLE "P1Q_t_0188-0197_30"
    INDEX 01 00:48:29
  TRACK 31 AUDIO
    TITLE "P1Q_t_0188-0197_31"
    INDEX 01 00:48:74
  TRACK 32 AUDIO
    TITLE "P1Q_t_0188-0197_32"
    INDEX 01 00:50:04
  TRACK 33 AUDIO
    TITLE "P1Q_t_0188-0197_33"
    INDEX 01 00:50:26
  TRACK 34 AUDIO
    TITLE "P1Q_t_0188-0197_34"
    INDEX 01 00:52:70
  TRACK 35 AUDIO
    TITLE "P1Q_t_0188-0197_35"
    INDEX 01 00:53:14
  TRACK 36 AUDIO
    TITLE "P1Q_t_0188-0197_36"
    INDEX 01 00:57:28
  TRACK 37 AUDIO
    TITLE "P1Q_t_0188-0197_37"
    INDEX 01 00:57:73
  TRACK 38 AUDIO
    TITLE "P1Q_t_0188-0197_38"
    INDEX 01 00:59:09
  TRACK 39 AUDIO
    TITLE "P1Q_t_0188-0197_39"
    INDEX 01 00:59:31
  TRACK 40 AUDIO
    TITLE "P1Q_t_0188-0197_40"
    INDEX 01 01:00:40
  TRACK 41 AUDIO
    TITLE "P1Q_t_0188-0197_41"
    INDEX 01 01:00:61
  TRACK 42 AUDIO
    TITLE "P1Q_t_0188-0197_42"
    INDEX 01 01:05:22
  TRACK 43 AUDIO
    TITLE "P1Q_t_0188-0197_43"
    INDEX 01 01:05:67
  TRACK 44 AUDIO
    TITLE "P1Q_t_0188-0197_44"
    INDEX 01 01:07:18
  TRACK 45 AUDIO
    TITLE "P1Q_t_0188-0197_45"
    INDEX 01 01:07:40
  TRACK 46 AUDIO
    TITLE "P1Q_t_0188-0197_46"
    INDEX 01 01:10:23
  TRACK 47 AUDIO
    TITLE "P1Q_t_0188-0197_47"
    INDEX 01 01:10:42
  TRACK 48 AUDIO
    TITLE "P1Q_t_0188-0197_48"
    INDEX 01 01:15:12
  TRACK 49 AUDIO
    TITLE "P1Q_t_0188-0197_49"
    INDEX 01 01:15:59
  TRACK 50 AUDIO
    TITLE "P1Q_t_0188-0197_50"
    INDEX 01 01:17:15
  TRACK 51 AUDIO
    TITLE "P1Q_t_0188-0197_51"
    INDEX 01 01:17:38
  TRACK 52 AUDIO
    TITLE "P1Q_t_0188-0197_52"
    INDEX 01 01:21:48
  TRACK 53 AUDIO
    TITLE "P1Q_t_0188-0197_53"
    INDEX 01 01:21:70
  TRACK 54 AUDIO
    TITLE "P1Q_t_0188-0197_54"
    INDEX 01 01:26:67
  TRACK 55 AUDIO
    TITLE "P1Q_t_0188-0197_55"
    INDEX 01 01:27:37
  TRACK 56 AUDIO
    TITLE "P1Q_t_0188-0197_56"
    INDEX 01 01:28:50
  TRACK 57 AUDIO
    TITLE "P1Q_t_0188-0197_57"
    INDEX 01 01:28:72
  TRACK 58 AUDIO
    TITLE "P1Q_t_0188-0197_58"
    INDEX 01 01:31:23
  TRACK 59 AUDIO
    TITLE "P1Q_t_0188-0197_59"
    INDEX 01 01:31:40
  TRACK 60 AUDIO
    TITLE "P1Q_t_0188-0197_60"
    INDEX 01 01:35:60
